<svg width="24" height="24" viewBox="0 0 24 24" fill="none" xmlns="http://www.w3.org/2000/svg">
<g id="search">
<path id="Vector" fill-rule="evenodd" clip-rule="evenodd" d="M10.1395 2C5.64419 2 2 5.64419 2 10.1395C2 14.6349 5.64419 18.2791 10.1395 18.2791C12.136 18.2791 13.9646 17.5603 15.3807 16.3673L20.809 21.7957C21.0815 22.0681 21.5232 22.0681 21.7957 21.7957C22.0681 21.5232 22.0681 21.0815 21.7957 20.809L16.3673 15.3807C17.5603 13.9646 18.2791 12.136 18.2791 10.1395C18.2791 5.64419 14.6349 2 10.1395 2ZM3.39535 10.1395C3.39535 6.41482 6.41482 3.39535 10.1395 3.39535C13.8642 3.39535 16.8837 6.41482 16.8837 10.1395C16.8837 13.8642 13.8642 16.8837 10.1395 16.8837C6.41482 16.8837 3.39535 13.8642 3.39535 10.1395Z" fill="#999999"/>
</g>
</svg>
